<svg viewBox="0 0 512 512" xmlns="http://www.w3.org/2000/svg" shape-rendering="geometricPrecision">
  <defs>
    <radialGradient id="bg" cx="0.5" cy="0.38" r="0.75">
      <stop offset="0%"   stop-color="#5080F2"/>
      <stop offset="55%"  stop-color="#3A6EE6"/>
      <stop offset="100%" stop-color="#2850CE"/>
    </radialGradient>
  </defs>

  <!-- iOS-style squircle background -->
  <rect width="512" height="512" rx="115" ry="115" fill="url(#bg)"/>

  <!-- Speed line 1: rounded-left, right-pointing arrow -->
  <path d="M 192 228 L 210 243 L 192 258 L 100 258 A 15 15 0 0 1 100 228 Z" fill="white"/>

  <!-- Speed line 2: slightly longer, same style -->
  <path d="M 196 268 L 214 283 L 196 298 L 79 298 A 15 15 0 0 1 79 268 Z" fill="white"/>

  <!-- Cursive w + 9-loop lettermark (single continuous stroke) -->
  <path d="
    M 198 255
    C 204 255, 216 278, 220 304
    C 224 328, 252 244, 256 220
    C 260 196, 288 282, 290 306
    C 292 328, 322 264, 332 248
    C 340 234, 360 196, 378 186
    C 400 172, 430 196, 430 250
    C 430 304, 412 328, 390 332
    C 368 336, 346 322, 336 302
    C 326 284, 330 264, 336 252
    C 330 266, 324 306, 320 348
    C 316 382, 320 406, 334 414
  "
    fill="none"
    stroke="white"
    stroke-width="34"
    stroke-linecap="round"
    stroke-linejoin="round"
  />
</svg>
